# Blender v2.78 (sub 0) OBJ File: ''
# www.blender.org
o Sphere_Sphere.001
v -0.000000 1.000000 -0.000000
v 0.353553 0.866025 -0.353553
v 0.612372 0.500000 -0.612373
v 0.707107 -0.000000 -0.707107
v 0.612372 -0.500000 -0.612372
v 0.353553 -0.866025 -0.353553
v 0.500000 0.866025 -0.000000
v 0.866025 0.500000 -0.000000
v 1.000000 -0.000000 -0.000000
v 0.866025 -0.500000 -0.000000
v 0.500000 -0.866025 -0.000000
v 0.353553 0.866025 0.353553
v 0.612372 0.500000 0.612372
v 0.707107 -0.000000 0.707106
v 0.612372 -0.500000 0.612372
v 0.353553 -0.866025 0.353553
v -0.000000 0.866025 0.500000
v 0.000000 0.500000 0.866025
v 0.000000 -0.000000 1.000000
v 0.000000 -0.500000 0.866025
v -0.000000 -0.866025 0.500000
v -0.353553 0.866025 0.353553
v -0.612372 0.500000 0.612372
v -0.707107 -0.000000 0.707106
v -0.612372 -0.500000 0.612372
v -0.353553 -0.866025 0.353553
v -0.500000 0.866025 -0.000000
v -0.866025 0.500000 -0.000000
v -1.000000 -0.000000 -0.000000
v -0.866025 -0.500000 -0.000000
v -0.500000 -0.866025 -0.000000
v -0.353553 0.866025 -0.353553
v -0.612372 0.500000 -0.612372
v -0.707107 -0.000000 -0.707107
v -0.612372 -0.500000 -0.612372
v -0.353553 -0.866025 -0.353553
v 0.000000 0.866025 -0.500000
v -0.000000 0.500000 -0.866025
v 0.000000 -0.000000 -1.000000
v 0.000000 -0.500000 -0.866025
v -0.000000 -0.866025 -0.500000
v 0.000000 -1.000000 -0.000000
vn 0.2811 -0.6786 -0.6786
vn 0.3715 0.2403 -0.8968
vn 0.1066 0.9604 -0.2573
vn 0.1066 -0.9604 -0.2573
vn 0.3715 -0.2403 -0.8968
vn 0.2811 0.6786 -0.6786
vn 0.2573 0.9604 -0.1066
vn 0.2573 -0.9604 -0.1066
vn 0.8968 -0.2403 -0.3715
vn 0.6786 0.6786 -0.2811
vn 0.6786 -0.6786 -0.2811
vn 0.8968 0.2403 -0.3715
vn 0.2573 -0.9604 0.1066
vn 0.8968 -0.2403 0.3715
vn 0.6786 0.6786 0.2811
vn 0.6786 -0.6786 0.2811
vn 0.8968 0.2403 0.3715
vn 0.2573 0.9604 0.1066
vn 0.1066 -0.9604 0.2573
vn 0.3715 -0.2403 0.8968
vn 0.2811 0.6786 0.6786
vn 0.2811 -0.6786 0.6786
vn 0.3715 0.2403 0.8968
vn 0.1066 0.9604 0.2573
vn -0.1066 -0.9604 0.2573
vn -0.3715 -0.2403 0.8968
vn -0.2811 0.6786 0.6786
vn -0.2811 -0.6786 0.6786
vn -0.3715 0.2403 0.8968
vn -0.1066 0.9604 0.2573
vn -0.8968 -0.2403 0.3715
vn -0.6786 0.6786 0.2811
vn -0.6786 -0.6786 0.2811
vn -0.8968 0.2403 0.3715
vn -0.2573 0.9604 0.1066
vn -0.2573 -0.9604 0.1066
vn -0.6786 0.6786 -0.2811
vn -0.6786 -0.6786 -0.2811
vn -0.8968 0.2403 -0.3715
vn -0.2573 0.9604 -0.1066
vn -0.2573 -0.9604 -0.1066
vn -0.8968 -0.2403 -0.3715
vn -0.2811 -0.6786 -0.6786
vn -0.3715 0.2403 -0.8968
vn -0.1066 0.9604 -0.2573
vn -0.1066 -0.9604 -0.2573
vn -0.3715 -0.2403 -0.8968
vn -0.2811 0.6786 -0.6786
s 1
f 41//1 40//1 5//1 6//1
f 39//2 38//2 3//2 4//2
f 37//3 1//3 2//3
f 42//4 41//4 6//4
f 40//5 39//5 4//5 5//5
f 38//6 37//6 2//6 3//6
f 2//7 1//7 7//7
f 42//8 6//8 11//8
f 5//9 4//9 9//9 10//9
f 3//10 2//10 7//10 8//10
f 6//11 5//11 10//11 11//11
f 4//12 3//12 8//12 9//12
f 42//13 11//13 16//13
f 10//14 9//14 14//14 15//14
f 8//15 7//15 12//15 13//15
f 11//16 10//16 15//16 16//16
f 9//17 8//17 13//17 14//17
f 7//18 1//18 12//18
f 42//19 16//19 21//19
f 15//20 14//20 19//20 20//20
f 13//21 12//21 17//21 18//21
f 16//22 15//22 20//22 21//22
f 14//23 13//23 18//23 19//23
f 12//24 1//24 17//24
f 42//25 21//25 26//25
f 20//26 19//26 24//26 25//26
f 18//27 17//27 22//27 23//27
f 21//28 20//28 25//28 26//28
f 19//29 18//29 23//29 24//29
f 17//30 1//30 22//30
f 25//31 24//31 29//31 30//31
f 23//32 22//32 27//32 28//32
f 26//33 25//33 30//33 31//33
f 24//34 23//34 28//34 29//34
f 22//35 1//35 27//35
f 42//36 26//36 31//36
f 28//37 27//37 32//37 33//37
f 31//38 30//38 35//38 36//38
f 29//39 28//39 33//39 34//39
f 27//40 1//40 32//40
f 42//41 31//41 36//41
f 30//42 29//42 34//42 35//42
f 36//43 35//43 40//43 41//43
f 34//44 33//44 38//44 39//44
f 32//45 1//45 37//45
f 42//46 36//46 41//46
f 35//47 34//47 39//47 40//47
f 33//48 32//48 37//48 38//48
